<svg width="24.000000" height="24.000000" viewBox="0 0 24 24" fill="none" xmlns="http://www.w3.org/2000/svg" xmlns:xlink="http://www.w3.org/1999/xlink">
	<desc>
			Created with Pixso.
	</desc>
	<defs/>
	<path id="icon" d="M12 14L9.5 16.5C9.22388 16.7761 8.77612 16.7761 8.5 16.5C8.22388 16.2239 8.22388 15.7761 8.5 15.5L11.2927 12.707C11.6833 12.3164 12.3164 12.3164 12.707 12.707L15.5 15.5C15.7761 15.7761 15.7761 16.2239 15.5 16.5C15.2239 16.7761 14.7761 16.7761 14.5 16.5L12 14ZM9.5 10.5L12 8L14.5 10.5C14.7761 10.7761 15.2239 10.7761 15.5 10.5C15.7761 10.2239 15.7761 9.77612 15.5 9.5L12.707 6.70703C12.3164 6.31641 11.6833 6.31641 11.2927 6.70703L8.5 9.5C8.22388 9.77612 8.22388 10.2239 8.5 10.5C8.77612 10.7761 9.22388 10.7761 9.5 10.5Z" clip-rule="evenodd" fill="#41F6D7" fill-opacity="1.000000" fill-rule="evenodd"/>
</svg>
