<svg width="24.000000" height="24.000000" viewBox="0 0 24 24" fill="none" xmlns="http://www.w3.org/2000/svg" xmlns:xlink="http://www.w3.org/1999/xlink">
	<desc>
			Created with Pixso.
	</desc>
	<defs/>
	<path id="icon" d="M12 10L14.5 7.5C14.7761 7.22388 15.2239 7.22388 15.5 7.5C15.7761 7.77612 15.7761 8.22388 15.5 8.5L12.7073 11.293C12.3167 11.6836 11.6836 11.6836 11.293 11.293L8.5 8.5C8.22388 8.22388 8.22388 7.77612 8.5 7.5C8.77612 7.22388 9.22388 7.22388 9.5 7.5L12 10ZM14.5 13.5L12 16L9.5 13.5C9.22388 13.2239 8.77612 13.2239 8.5 13.5C8.22388 13.7761 8.22388 14.2239 8.5 14.5L11.293 17.293C11.6836 17.6836 12.3167 17.6836 12.7073 17.293L15.5 14.5C15.7761 14.2239 15.7761 13.7761 15.5 13.5C15.2239 13.2239 14.7761 13.2239 14.5 13.5Z" clip-rule="evenodd" fill="#41F6D7" fill-opacity="1.000000" fill-rule="evenodd"/>
</svg>
